<svg width="316" height="45" viewBox="0 0 316 45" fill="none" xmlns="http://www.w3.org/2000/svg">
<path d="M12.7338 44.166L0.638816 1.47773H16.8733L21.8536 32.3297L27.8688 1.47773H40.8046L47.1432 32.1357L51.9941 1.47773H67.6465L55.4868 44.166H39.511L36.1477 28.1256L34.466 17.1948H34.272L32.5904 28.1256L29.2917 44.166H12.7338ZM108.141 44.166H92.7471L90.8067 36.0164H79.2938L77.2887 44.166H62.2832L76.1245 1.47773H94.2347L108.141 44.166ZM81.5576 26.6379H88.6076L85.1149 11.8264L81.5576 26.6379ZM145.547 1.47773V12.5379H132.223V44.166H117.152V12.5379H103.764V1.47773H145.547ZM188.188 31.1008C187.412 34.421 186.075 37.0944 184.178 39.121C182.324 41.1477 180.06 42.6137 177.386 43.5192C174.713 44.3816 171.738 44.8128 168.461 44.8128C163.976 44.8128 160.095 43.9504 156.818 42.2256C153.584 40.5009 151.084 37.9999 149.316 34.7228C147.591 31.4458 146.728 27.4788 146.728 22.8219C146.728 18.165 147.591 14.198 149.316 10.9209C151.084 7.64382 153.584 5.14289 156.818 3.41811C160.095 1.69333 163.976 0.830941 168.461 0.830941C171.608 0.830941 174.541 1.28369 177.257 2.1892C179.974 3.05159 182.259 4.43142 184.113 6.32867C186.01 8.22593 187.261 10.7053 187.864 13.7668L174.929 18.8118C174.584 16.009 173.872 14.198 172.794 13.3787C171.759 12.5594 170.444 12.1498 168.849 12.1498C167.383 12.1498 166.132 12.5379 165.097 13.314C164.106 14.0471 163.351 15.2113 162.834 16.8067C162.359 18.359 162.122 20.3641 162.122 22.8219C162.122 25.2366 162.338 27.2416 162.769 28.837C163.243 30.4325 163.998 31.6182 165.033 32.3944C166.068 33.1274 167.447 33.4939 169.172 33.4939C170.724 33.4939 171.996 33.0412 172.988 32.1357C173.98 31.1871 174.605 29.6994 174.864 27.6728L188.188 31.1008ZM233.706 1.47773V44.166H218.636V1.47773H233.706ZM206.929 1.47773V44.166H191.859V1.47773H206.929ZM226.98 17.1948V28.2549H199.103V17.1948H226.98ZM255.249 33.1059H274.588V44.166H240.179V1.47773H255.249V33.1059ZM279.34 44.166V1.47773H314.784V12.5379H294.41V17.8416H310.839V28.0609H294.41V33.1059H315.56V44.166H279.34Z" fill="url(#paint0_linear_138_41)"/>
<defs>
<linearGradient id="paint0_linear_138_41" x1="1.15625" y1="7.91602" x2="305.129" y2="43.2316" gradientUnits="userSpaceOnUse">
<stop stop-color="#9E23FF"/>
<stop offset="1" stop-color="#5372ED"/>
</linearGradient>
</defs>
</svg>
